#N canvas 827 239 527 327 12;
#X obj 228 357 inlet~ audio;
#X obj 275 505 env~;
#X obj 236 1229 outlet~ audio;
#X obj 236 1152 lop~ 20000;
#X obj 427 973 *~ 20000;
#X obj 630 144 inlet open;
#X obj 435 357 inlet follow_amount;
#X obj 427 768 *~;
#X obj 275 459 compress~ -30 5 5 5 12 256;
#X text 713 143 inlet to manually open the gate;
#X text 445 287 power of three makes the response feel more natural;
#X text 445 321 manually opens up the gate's filter up to 20kHz;
#X text 486 458 makes the envelope follower more responsive;
#X obj 275 633 pow~ 1.4;
#X text 485 546 nicer response for the follow param;
#X text 612 897 db to linear;
#X text 509 936 nicer response;
#X text 512 972 max filter;
#X obj 435 491 pow~ 1.1;
#X text 804 792 lpg trail effect;
#X obj 752 793 line~;
#X obj 427 906 expr~ pow(10 \, ($v1-100)/20);
#X obj 275 579 /~ 100;
#X obj 275 539 clip~ 0 100;
#X obj 275 671 *~ 100;
#X obj 427 835 max~;
#X obj 752 718 bng 25 250 50 0 empty empty empty 17 7 0 10 #e4e4e4 #4d4d4d #373737;
#X obj 752 680 change;
#X obj 756 856 *~;
#X obj 882 514 line~;
#X obj 881 391 bng 25 250 50 0 empty empty empty 17 7 0 10 #e4e4e4 #4d4d4d #373737;
#X obj 881 364 change;
#X msg 882 487 1 0 \, 1 50 \, 0 1000 \;;
#X obj 532 761 max~;
#X obj 630 244 *~ 100;
#X obj 629 199 sig~;
#X obj 886 650 *~ 100;
#X obj 886 619 pow~ 5;
#X obj 356 1100 *~ 0.5;
#X obj 373 1043 max~;
#X obj 319 604 expr 0.4 - 0.3 * $f1 + 1;
#X msg 752 755 1 0 \, 1 5 \, 0 1000 \;;
#X obj 590 1011 *~ 200;
#X obj 752 902 pow~ 4;
#X connect 0 0 3 0;
#X connect 0 0 8 0;
#X connect 1 0 23 0;
#X connect 1 0 27 0;
#X connect 3 0 2 0;
#X connect 4 0 39 0;
#X connect 5 0 31 0;
#X connect 5 0 35 0;
#X connect 6 0 18 0;
#X connect 6 0 28 1;
#X connect 6 0 40 0;
#X connect 7 0 25 0;
#X connect 8 0 1 0;
#X connect 13 0 24 0;
#X connect 18 0 7 1;
#X connect 20 0 28 0;
#X connect 21 0 4 0;
#X connect 22 0 13 0;
#X connect 23 0 22 0;
#X connect 24 0 7 0;
#X connect 25 0 21 0;
#X connect 26 0 41 0;
#X connect 27 0 26 0;
#X connect 28 0 43 0;
#X connect 29 0 37 0;
#X connect 30 0 32 0;
#X connect 31 0 30 0;
#X connect 32 0 29 0;
#X connect 33 0 25 1;
#X connect 34 0 33 0;
#X connect 35 0 34 0;
#X connect 36 0 33 1;
#X connect 37 0 36 0;
#X connect 38 0 3 1;
#X connect 39 0 38 0;
#X connect 40 0 13 1;
#X connect 41 0 20 0;
#X connect 42 0 39 1;
#X connect 43 0 42 0;
