#N canvas 827 239 527 327 12;
#X obj 200 159 wavefolder;
#X obj 200 398 dac~;
#X obj 293 107 param Fold;
#X obj 200 107 adc~;
#X obj 293 159 wavefolder;
#X obj 200 308 lowpassgate;
#X obj 293 308 lowpassgate;
#X obj 231 239 param GateFollow;
#X obj 60 107 param Bypass;
#X obj 60 236 *~;
#X obj 122 239 *~;
#X obj 356 239 param Gate;
#X obj 60 159 pow~ 20;
#X connect 0 0 5 0;
#X connect 2 0 4 1;
#X connect 2 0 0 1;
#X connect 3 0 0 0;
#X connect 3 0 9 0;
#X connect 3 1 4 0;
#X connect 3 1 10 0;
#X connect 4 0 6 0;
#X connect 5 0 1 0;
#X connect 6 0 1 1;
#X connect 7 0 6 1;
#X connect 7 0 5 1;
#X connect 8 0 12 0;
#X connect 9 0 1 0;
#X connect 10 0 1 1;
#X connect 11 0 6 2;
#X connect 11 0 5 2;
#X connect 12 0 9 1;
#X connect 12 0 10 1;
#X coords 0 0 1 1 693 453 1 0 0;
