#N canvas 109 124 906 691 10;
#X obj 186 439 *~;
#X obj 197 390 lop~ 5;
#X obj 197 223 clip 0 1;
#X obj 434 562 cyclone/pong~ 0 -1 1;
#X obj 269 390 lop~;
#X obj 322 285 lop~ 5;
#X obj 322 342 expr~ -40916.7 * pow($v1 \, 3) + 97775 * pow($v1 \, 2) - 76658.3 * $v1 + 20000;
#X obj 118 500 lop~ 80;
#X obj 118 562 *~;
#X obj 428 647 +~;
#X obj 197 186 inlet fold;
#X obj 64 330 inlet~ audio;
#X obj 428 737 outlet~ audio;
#X text 581 561 actual folding;
#X text 166 561 bring in bass as folding increases;
#X text 705 341 filter out high frequencies as folding increases;
#X text 705 365 this cleans up the high frequencies for the newly generated harmonics created by folding;
#X text 705 408 this function is a regression with following points: 0 -> 20000 Hz \, 0.5 -> 1000 Hz \, 0.8 -> 300 Hz \, 1 -> 200 Hz;
#X text 29 26 Wavefolder that actually sounds good;
#X text 29 56 - does not lose bass as folding increases;
#X text 29 86 - does not produce sharp high frequencies \, only smooth folded harmonics;
#X obj 428 684 *~ 0.5;
#X obj 197 289 * 100;
#X obj 197 321 +~ 1;
#X text 247 320 min;
#X text 252 288 max;
#X text 229 438 fold amount;
#X connect 0 0 3 0;
#X connect 1 0 0 1;
#X connect 2 0 5 0;
#X connect 2 0 22 0;
#X connect 3 0 9 1;
#X connect 4 0 0 0;
#X connect 5 0 6 0;
#X connect 5 0 8 1;
#X connect 6 0 4 1;
#X connect 7 0 8 0;
#X connect 8 0 9 0;
#X connect 9 0 21 0;
#X connect 10 0 2 0;
#X connect 11 0 4 0;
#X connect 11 0 7 0;
#X connect 21 0 12 0;
#X connect 22 0 23 0;
#X connect 23 0 1 0;
